<?xml version="1.0" encoding="utf-8"?>
<!-- Generator: Adobe Illustrator 16.0.0, SVG Export Plug-In . SVG Version: 6.00 Build 0)  -->
<!DOCTYPE svg PUBLIC "-//W3C//DTD SVG 1.1//EN" "http://www.w3.org/Graphics/SVG/1.1/DTD/svg11.dtd">
<svg version="1.1"
	 id="svg2985" xmlns:dc="http://purl.org/dc/elements/1.1/" xmlns:cc="http://creativecommons.org/ns#" xmlns:rdf="http://www.w3.org/1999/02/22-rdf-syntax-ns#" xmlns:svg="http://www.w3.org/2000/svg" xmlns:sodipodi="http://sodipodi.sourceforge.net/DTD/sodipodi-0.dtd" xmlns:inkscape="http://www.inkscape.org/namespaces/inkscape" sodipodi:docname="pinterestLogo.svg" inkscape:version="0.48.4 r9939"
	 xmlns="http://www.w3.org/2000/svg" xmlns:xlink="http://www.w3.org/1999/xlink" x="0px" y="0px" width="80px" height="80px"
	 viewBox="24 24 80 80" enable-background="new 24 24 80 80" xml:space="preserve">
<sodipodi:namedview  fit-margin-left="0" fit-margin-top="0" inkscape:cy="33.393139" inkscape:cx="11.47905" inkscape:zoom="7.1515151" showgrid="false" guidetolerance="10" gridtolerance="10" objecttolerance="10" borderopacity="1" pagecolor="#e4972b" bordercolor="#666666" id="namedview5100" fit-margin-bottom="0" fit-margin-right="0" inkscape:current-layer="svg2985" inkscape:window-maximized="1" inkscape:window-y="57" inkscape:window-x="-9" inkscape:window-width="1920" inkscape:pageopacity="1" inkscape:window-height="1053" inkscape:pageshadow="2">
	</sodipodi:namedview>
<path id="path3130" inkscape:connector-curvature="0" sodipodi:nodetypes="ccccccsssssccsscscccccssc" fill="#007BB5" d="
	M45.26,97.673h-0.636H30.602V48.818H45.26V97.673z M37.931,42.176c-4.934,0-8.931-3.998-8.931-8.93c0-4.932,3.999-8.931,8.931-8.931
	c4.932,0,8.931,3.999,8.931,8.931C46.862,38.178,42.865,42.176,37.931,42.176z M99,97.673H84.343v-25.86
	c0-6.104-2.599-10.262-8.058-10.262c-4.169,0-5.016,2.811-6.104,5.516c-0.399,0.974-0.496,2.322-0.496,3.681v26.926H55.03
	c0,0,0.2-44.594,0-48.854h14.656v8.32c0-3.088,3.459-8.474,14.963-8.474C96.15,48.665,99,49.026,99,65.184
	C99,81.339,99,97.673,99,97.673z"/>
</svg>
