<?xml version="1.0" encoding="utf-8"?>
<!-- Generator: Adobe Illustrator 23.1.1, SVG Export Plug-In . SVG Version: 6.00 Build 0)  -->
<svg version="1.1"
	 id="svg2985" inkscape:version="0.48.4 r9939" sodipodi:docname="pinterestLogo.svg" xmlns:cc="http://creativecommons.org/ns#" xmlns:dc="http://purl.org/dc/elements/1.1/" xmlns:inkscape="http://www.inkscape.org/namespaces/inkscape" xmlns:rdf="http://www.w3.org/1999/02/22-rdf-syntax-ns#" xmlns:sodipodi="http://sodipodi.sourceforge.net/DTD/sodipodi-0.dtd" xmlns:svg="http://www.w3.org/2000/svg"
	 xmlns="http://www.w3.org/2000/svg" xmlns:xlink="http://www.w3.org/1999/xlink" x="0px" y="0px" viewBox="0 0 80 80"
	 style="enable-background:new 0 0 80 80;" xml:space="preserve">
<style type="text/css">
	.st0{fill:#766A62;}
</style>
<sodipodi:namedview  bordercolor="#666666" borderopacity="1" fit-margin-bottom="0" fit-margin-left="0" fit-margin-right="0" fit-margin-top="0" gridtolerance="10" guidetolerance="10" id="namedview5100" inkscape:current-layer="svg2985" inkscape:cx="11.47905" inkscape:cy="33.393139" inkscape:pageopacity="1" inkscape:pageshadow="2" inkscape:window-height="1053" inkscape:window-maximized="1" inkscape:window-width="1920" inkscape:window-x="-9" inkscape:window-y="57" inkscape:zoom="7.1515151" objecttolerance="10" pagecolor="#e4972b" showgrid="false">
	</sodipodi:namedview>
<path id="path3130" inkscape:connector-curvature="0" sodipodi:nodetypes="ccccccsssssccsscscccccssc" class="st0" d="M21.3,73.7
	h-0.6h-14V24.8h14.7V73.7z M13.9,18.2C9,18.2,5,14.2,5,9.2s4-8.9,8.9-8.9s8.9,4,8.9,8.9S18.9,18.2,13.9,18.2z M75,73.7H60.3V47.8
	c0-6.1-2.6-10.3-8.1-10.3c-4.2,0-5,2.8-6.1,5.5c-0.4,1-0.5,2.3-0.5,3.7v26.9H31c0,0,0.2-44.6,0-48.9h14.7v8.3c0-3.1,3.5-8.5,15-8.5
	C72.2,24.7,75,25,75,41.2C75,57.3,75,73.7,75,73.7z"/>
</svg>
