<?xml version="1.0" encoding="utf-8"?>
<!-- Generator: Adobe Illustrator 18.1.1, SVG Export Plug-In . SVG Version: 6.00 Build 0)  -->
<svg version="1.1" id="Layer_1" xmlns="http://www.w3.org/2000/svg" xmlns:xlink="http://www.w3.org/1999/xlink" x="0px" y="0px"
	 viewBox="0 234.8 436.4 89.5" enable-background="new 0 234.8 436.4 89.5" xml:space="preserve">
<g id="JSOM_Wordmark_1_">
	<path id="path5_1_" fill="#FFFFFF" d="M42.2,237.8c-3.3,0.3-4.5,0.9-4.8,3.6c-0.3,1.8-0.6,4.5-0.6,9.9v23.3h-2.7L9.6,245.3h0v13.2
		c0,5.1,0.3,7.8,0.6,9.6c0.3,2.7,1.2,3.6,5.7,3.9v2.1H1.2v-2.1c3.3-0.3,4.8-1.2,4.8-3.6c0.3-1.8,0.6-4.5,0.6-9.9v-12.3
		c0-3.9,0-4.8-1.2-6.3c-1.2-1.5-2.4-1.8-5.1-2.1v-2.1h10.8l22.5,25.7h0.3V251c0-5.1-0.3-8.1-0.6-9.6c-0.3-2.4-1.5-3.6-5.7-3.9v-2.1
		h14.4v2.4H42.2z"/>
	<path id="path9_1_" fill="#FFFFFF" d="M58.7,245.6L58.7,245.6c-1.8,4.2-3.3,8.7-4.8,12.9h9L58.7,245.6z M63.5,274v-2.1
		c3.6-0.6,3.9-1.2,2.7-3.9c-0.6-1.8-1.5-4.2-2.4-6.6H52.4c-0.6,1.8-1.5,3.9-2.1,6.3c-0.9,2.7-0.6,3.6,3.6,4.2v2.1H40.7v-2.1
		c3.9-0.6,4.8-1.2,6.6-6l12-30.2l3-0.9c3.9,10.2,7.5,20.7,11.4,30.5c2.1,5.1,2.7,6,6.6,6.3v2.1H63.5V274z"/>
	<path id="path11_1_" fill="#FFFFFF" d="M109.9,237.8c-3.9,0.3-4.8,1.2-7.2,6.6c-1.8,4.5-7.2,18-12,29.9h-3
		c-3.9-10.8-9.6-24.8-12-31.1c-1.8-4.5-2.7-5.4-6.3-5.7v-2.1h17.4v2.1c-4.2,0.6-4.2,1.2-3.3,3.9c1.8,4.8,6.3,16.8,8.4,22.2h0.3
		c3.3-8.7,5.7-15.6,7.5-20.7c1.5-4.2,1.5-4.8-3.6-5.4v-2.1h13.8L109.9,237.8L109.9,237.8z"/>
	<path id="path13_1_" fill="#FFFFFF" d="M145.2,264.1c-0.3,2.7-1.5,8.1-2.1,9.9h-29.9v-2.1c5.1-0.3,5.7-0.9,5.7-5.7v-22.5
		c0-5.1-0.6-5.4-4.8-5.7V236h27.8c0,1.2,0.3,5.1,0.6,8.7l-2.1,0.3c-0.6-2.1-1.2-3.9-2.4-5.1c-0.9-1.2-2.7-1.5-6-1.5h-2.7
		c-2.1,0-2.4,0-2.4,2.1v12.6h3.9c5.1,0,5.7-0.3,6.6-4.5h2.1v12h-2.1c-0.9-4.2-1.5-4.5-6.6-4.5h-3.9v9.9c0,2.7,0.3,4.2,1.5,4.8
		s3,0.6,5.4,0.6c3,0,5.1-0.3,6.6-1.8c1.2-1.2,2.1-3.3,3.3-5.7L145.2,264.1L145.2,264.1z"/>
	<path id="path15_1_" fill="#FFFFFF" d="M178.7,264.1c-0.3,2.7-1.5,8.1-2.1,9.9h-29.9v-2.1c5.1-0.3,5.7-0.9,5.7-5.7v-22.5
		c0-5.1-0.6-5.4-4.8-5.7V236h27.8c0,1.2,0.3,5.1,0.6,8.7l-2.4,0c-0.6-2.1-1.2-3.9-2.4-5.1c-0.9-1.2-2.7-1.5-6-1.5h-2.7
		c-2.1,0-2.4,0-2.4,2.1v12.6h3.9c5.1,0,5.7-0.3,6.6-4.5h2.1v12h-2.1c-0.9-4.2-1.5-4.5-6.6-4.5h-3.9v10.2c0,2.7,0.3,4.2,1.5,4.8
		c1.2,0.6,3,0.6,5.4,0.6c3,0,5.1-0.3,6.6-1.8c1.2-1.2,2.1-3.3,3.3-5.7L178.7,264.1L178.7,264.1z"/>
	<path id="path17_1_" fill="#FFFFFF" d="M221.2,237.8c-3.3,0.3-4.5,0.9-4.8,3.6c-0.3,1.8-0.6,4.5-0.6,9.9v23.3h-2.7l-24.5-29.3h-0.3
		v13.2c0,5.1,0.3,7.8,0.6,9.6c0.3,2.7,1.2,3.6,5.7,3.9v2.1h-14.4v-2.1c3.3-0.3,4.8-1.2,4.8-3.6c0.3-1.8,0.6-4.5,0.6-9.9v-12.3
		c0-3.9,0-4.8-1.2-6.3c-1.2-1.5-2.4-1.8-5.1-2.1v-2.1h10.8l22.5,25.7h0.3V251c0-5.1-0.3-8.1-0.6-9.6c-0.3-2.4-1.5-3.6-5.7-3.9v-2.1
		h14.4v2.4H221.2z"/>
	<path id="path19_1_" fill="#FFFFFF" d="M255,237.8c-4.2,0.3-4.5,0.9-4.5,5.7v19.5c0,6.9-0.6,12.3-6,16.8c-2.4,2.1-4.8,3-7.2,3.6
		l-0.9-2.1c3.3-1.5,5.1-3.3,5.4-7.2c0.6-3.3,0.6-7.2,0.6-11.4v-19.2c0-5.1-0.6-5.4-5.1-5.7v-2.1H255L255,237.8L255,237.8z"/>
	<path id="path21_1_" fill="#FFFFFF" d="M258.9,274v-2.1c4.5-0.3,4.8-0.9,4.8-5.7v-22.5c0-5.1-0.6-5.4-4.8-5.7V236h17.7v2.1
		c-4.5,0.3-4.8,0.9-4.8,5.7v22.2c0,5.1,0.6,5.4,4.8,5.7v2.1h-17.7V274z"/>
	<path id="path23_1_" fill="#FFFFFF" d="M322.1,237.8c-3.3,0.3-4.5,0.9-4.8,3.6c-0.3,1.8-0.6,4.5-0.6,9.9v23.3h-2.4l-24.5-29.3h-0.3
		v13.2c0,5.1,0.3,7.8,0.6,9.6c0.3,2.7,1.2,3.6,5.7,3.9v2.1h-14.4v-2.1c3.3-0.3,4.8-1.2,4.8-3.6c0.3-1.8,0.6-4.5,0.6-9.9v-12.3
		c0-3.9,0-4.8-1.2-6.3c-1.2-1.5-2.4-1.8-4.8-2.1v-2.1h10.8l22.5,25.7h0.3V251c0-5.1-0.3-8.1-0.6-9.6c-0.3-2.4-1.5-3.6-5.7-3.9v-2.1
		h14.4L322.1,237.8L322.1,237.8z"/>
	<path id="path25_1_" fill="#FFFFFF" d="M338.9,265.6c0,4.2,0.9,5.7,5.1,5.7c7.8,0,13.2-6.3,13.2-17.1c0-5.7-1.8-10.2-4.5-12.6
		c-2.4-2.4-5.4-3.6-9.6-3.6c-2.1,0-3.3,0.3-3.6,0.9c-0.6,0.6-0.6,1.5-0.6,3.3L338.9,265.6L338.9,265.6z M343.6,235.7
		c7.5,0,13.2,1.5,16.8,5.1c3,2.7,5.4,6.9,5.4,12.6c0,7.2-3,12.3-7.5,15.9c-4.5,3.3-10.5,4.8-18,4.8h-15.3v-2.1
		c4.8-0.3,5.1-0.9,5.1-5.7v-22.5c0-5.1-0.6-5.4-4.8-5.7V236h18.3V235.7z"/>
	<path id="path27_1_" fill="#FFFFFF" d="M379.6,245.6L379.6,245.6c-1.8,4.2-3.3,8.7-4.8,12.9h9.3L379.6,245.6L379.6,245.6z
		 M384.4,274v-2.1c3.6-0.6,3.9-1.2,2.7-3.9c-0.6-1.8-1.5-4.2-2.4-6.6h-11.4c-0.6,1.8-1.5,3.9-2.1,6.3c-0.9,2.7-0.6,3.6,3.6,4.2v2.1
		h-13.2v-2.1c3.9-0.6,4.8-1.2,6.6-6l12-30.2l3-0.9c3.9,10.2,7.5,20.7,11.4,30.5c2.1,5.1,2.7,6,6.6,6.3v2.1h-16.8V274z"/>
	<path id="path29_1_" fill="#FFFFFF" d="M436.1,263.8c-0.6,2.4-1.8,8.4-2.1,9.9h-28.7v-1.8c5.1-0.3,5.7-0.9,5.7-5.7v-22.5
		c0-5.1-0.6-5.4-5.1-5.7V236h18v2.1c-4.5,0.3-5.1,0.9-5.1,5.7v23c0,2.7,0.3,3.9,1.5,4.2s2.7,0.6,4.5,0.6c2.4,0,4.8-0.3,6-2.1
		c1.2-1.2,2.1-3,3.3-6L436.1,263.8L436.1,263.8z"/>
	<path id="path57_1_" fill="#FFFFFF" d="M19.8,315.9c0,1.2-0.3,2.4-0.9,3.6c-0.6,0.9-1.2,1.8-2.1,2.7c-0.6,0.6-1.8,0.9-3,1.5
		c-1.2,0.3-2.7,0.6-3.9,0.6c-2.1,0-3.9-0.3-5.4-0.9s-3-1.5-4.5-2.7l3.3-3.3c0.9,0.9,1.8,1.5,3,1.8c1.2,0.3,2.4,0.6,3.6,0.6
		c1.5,0,2.7-0.3,3.6-0.9s1.2-1.5,1.2-2.4s-0.3-1.8-0.9-2.1c-0.3-0.3-0.6-0.3-0.9-0.6c-0.3,0-0.9-0.3-1.5-0.3l-3.3-0.6
		c-1.2-0.3-2.1-0.3-3-0.9c-0.9-0.9-1.5-1.2-2.1-1.8c-1.2-1.2-1.8-3-1.8-5.4c0-1.2,0.3-2.4,0.6-3.3s1.2-1.8,1.8-2.7
		c0.9-0.6,1.8-1.2,3-1.8c1.2-0.3,2.4-0.6,3.9-0.6c1.8,0,3.6,0.3,4.8,0.6c1.5,0.6,2.7,1.2,3.9,2.4l-3.3,3.3c-0.9-0.3-1.8-0.9-2.7-1.2
		c-0.9-0.3-1.8-0.3-2.7-0.3c-1.5,0-2.4,0.3-3,0.9s-0.9,1.5-0.9,2.4c0,0.3,0,0.6,0.3,0.9c0,0.3,0.3,0.6,0.6,0.9
		c0.3,0.3,0.6,0.6,0.9,0.6c0.3,0.3,0.9,0.3,1.5,0.3l3.3,0.6c1.2,0.3,2.4,0.3,3,0.9c0.9,0.3,1.5,0.9,2.1,1.5c0.6,0.6,1.2,1.5,1.5,2.4
		C19.8,313.5,19.8,314.7,19.8,315.9L19.8,315.9z"/>
	<path id="path59_1_" fill="#FFFFFF" d="M42.2,315.6c-0.6,2.7-1.8,5.1-3.3,6.3c-1.8,1.5-3.9,2.1-6.6,2.1c-1.5,0-3-0.3-4.2-0.6
		c-1.2-0.6-2.1-1.2-3.3-2.1c-0.3-0.6-0.9-1.5-1.2-2.1s-0.6-1.5-0.9-2.4s-0.3-1.8-0.3-3c0-0.9,0-2.1,0-3.6c0-1.2,0-2.4,0-3.6
		c0-0.9,0-2.1,0.3-3c0.3-0.9,0.3-1.8,0.9-2.4c0.3-0.6,0.9-1.5,1.5-2.1c0.9-0.9,2.1-1.5,3.3-2.1c1.2-0.6,2.4-0.6,4.2-0.6
		c2.4,0,4.8,0.6,6.6,2.1c1.8,1.5,3,3.6,3.3,6.3h-5.4c-0.3-1.2-0.9-2.1-1.5-2.7s-1.8-1.2-3-1.2c-0.6,0-1.5,0-2.1,0.3
		c-0.6,0.6-1.2,1.2-1.5,1.5c-0.3,0.3-0.6,0.6-0.6,0.9c-0.3,0.3-0.3,0.9-0.3,1.5s-0.3,1.2-0.3,2.1c0,0.9,0,1.8,0,3.3
		c0,1.2,0,2.4,0,3.3s0,1.5,0.3,2.1c0,0.6,0.3,0.9,0.3,1.5c0.3,0.3,0.3,0.6,0.6,0.9c0.3,0.3,0.9,0.9,1.5,0.9c0.6,0.3,1.2,0.3,2.1,0.3
		c1.2,0,2.4-0.3,3-1.2c0.6-0.6,1.2-1.5,1.5-2.7L42.2,315.6L42.2,315.6z"/>
	<path id="path61_1_" fill="#FFFFFF" d="M59.6,324v-11.4h-9.3V324h-5.4v-26.9h5.4v10.8h9.3v-11.1H65v26.9h-5.4V324z"/>
	<path id="path63_1_" fill="#FFFFFF" d="M88.9,310.5c0,1.2,0,2.4,0,3.6c0,0.9,0,2.1-0.3,3s-0.6,1.8-0.9,2.4
		c-0.3,0.6-0.9,1.5-1.5,2.1c-0.9,0.9-1.8,1.5-3,2.1s-2.4,0.6-4.2,0.6c-1.5,0-3-0.3-4.2-0.6c-1.2-0.6-2.1-1.2-3-2.1
		c-0.6-0.6-1.2-1.5-1.5-2.1s-0.6-1.5-0.9-2.4s-0.3-1.8-0.3-3c0-0.9,0-2.1,0-3.6c0-1.2,0-2.4,0-3.6c0-0.9,0-2.1,0.3-3
		c0.3-0.9,0.3-1.8,0.9-2.4c0.3-0.6,0.9-1.5,1.5-2.1c0.9-0.9,2.1-1.5,3-2.1c1.2-0.6,2.7-0.6,4.2-0.6c1.5,0,3,0.3,4.2,0.6
		c1.2,0.6,2.1,1.2,3,2.1c0.6,0.6,1.2,1.5,1.5,2.1s0.6,1.5,0.9,2.4c0.3,0.9,0.3,1.8,0.3,3C88.9,307.8,88.9,309,88.9,310.5z
		 M83.5,310.5c0-1.2,0-2.4,0-3.3s0-1.5-0.3-2.1c0-0.6-0.3-0.9-0.3-1.2c-0.3-0.3-0.3-0.6-0.6-0.9s-0.9-0.9-1.5-0.9
		c-0.6-0.3-1.2-0.3-2.1-0.3c-0.6,0-1.5,0-2.1,0.3c-0.6,0.3-1.2,0.6-1.5,0.9s-0.6,0.6-0.6,0.9c-0.3,0.3-0.3,0.9-0.3,1.2
		c0,0.6-0.3,1.2-0.3,2.1s0,1.8,0,3.3c0,1.2,0,2.4,0,3.3c0,0.9,0,1.5,0.3,2.1c0,0.6,0.3,0.9,0.3,1.2c0.3,0.3,0.3,0.6,0.6,0.9
		s0.9,0.9,1.5,1.2c0.6,0.3,1.2,0.3,2.1,0.3c0.6,0,1.5,0,2.1-0.3s0.9-0.6,1.5-1.2c0.3-0.3,0.6-0.6,0.6-0.9c0.3-0.3,0.3-0.9,0.3-1.2
		c0-0.6,0.3-1.2,0.3-2.1C83.5,312.6,83.5,311.7,83.5,310.5z"/>
	<path id="path65_1_" fill="#FFFFFF" d="M111.7,310.5c0,1.2,0,2.4,0,3.6c0,0.9,0,2.1-0.3,3s-0.6,1.8-0.9,2.4s-0.9,1.5-1.5,2.1
		c-0.9,0.9-2.1,1.5-3,2.1c-1.2,0.6-2.4,0.6-4.2,0.6c-1.5,0-3-0.3-4.2-0.6c-1.2-0.6-2.1-1.2-3-2.1c-0.6-0.6-1.2-1.5-1.5-2.1
		c-0.3-0.6-0.6-1.5-0.9-2.4c-0.3-0.9-0.3-1.8-0.3-3c0-0.9,0-2.1,0-3.6c0-1.2,0-2.4,0-3.6c0-0.9,0-2.1,0.3-3c0.3-0.9,0.3-1.8,0.9-2.4
		c0.3-0.6,0.9-1.5,1.5-2.1c0.9-0.9,2.1-1.5,3-2.1c1.2-0.6,2.4-0.6,4.2-0.6c1.5,0,3,0.3,4.2,0.6c1.2,0.6,2.1,1.2,3,2.1
		c0.6,0.6,1.2,1.5,1.5,2.1s0.6,1.5,0.9,2.4c0.3,0.9,0.3,1.8,0.3,3C111.7,307.8,111.7,309,111.7,310.5z M106.3,310.5
		c0-1.2,0-2.4,0-3.3s0-1.5-0.3-2.1c0-0.6-0.3-0.9-0.3-1.2c-0.3-0.3-0.3-0.6-0.6-0.9c-0.3-0.3-0.9-0.9-1.5-0.9
		c-0.6-0.3-1.2-0.3-2.1-0.3c-0.6,0-1.5,0-2.1,0.3c-0.6,0.3-1.2,0.6-1.5,0.9s-0.6,0.6-0.6,0.9c-0.3,0.3-0.3,0.9-0.3,1.2
		c0,0.6-0.3,1.2-0.3,2.1s0,1.8,0,3.3c0,1.2,0,2.4,0,3.3c0,0.9,0,1.5,0.3,2.1c0,0.6,0.3,0.9,0.3,1.2c0.3,0.3,0.3,0.6,0.6,0.9
		c0.3,0.3,0.9,0.9,1.5,1.2c0.6,0.3,1.2,0.3,2.1,0.3c0.6,0,1.5,0,2.1-0.3s0.9-0.6,1.5-1.2c0.3-0.3,0.6-0.6,0.6-0.9
		c0.3-0.3,0.3-0.9,0.3-1.2c0-0.6,0.3-1.2,0.3-2.1C106.3,312.6,106.3,311.7,106.3,310.5z"/>
	<path id="path67_1_" fill="#FFFFFF" d="M115.5,324v-26.9h5.4v22.2h12.3v4.8H115.5z"/>
	<path id="path69_1_" fill="#FFFFFF" d="M163.1,310.5c0,1.2,0,2.4,0,3.6c0,0.9,0,2.1-0.3,3c-0.3,0.9-0.6,1.8-0.9,2.4
		c-0.3,0.6-0.9,1.5-1.5,2.1c-0.9,0.9-2.1,1.5-3,2.1c-1.2,0.6-2.4,0.6-4.2,0.6c-1.5,0-3-0.3-4.2-0.6c-1.2-0.6-2.1-1.2-3-2.1
		c-0.6-0.6-1.2-1.5-1.5-2.1s-0.6-1.5-0.9-2.4c-0.3-0.9-0.3-1.8-0.3-3c0-0.9,0-2.1,0-3.6c0-1.2,0-2.4,0-3.6c0-0.9,0-2.1,0.3-3
		c0.3-0.9,0.3-1.8,0.9-2.4c0.3-0.6,0.9-1.5,1.5-2.1c0.9-0.9,2.1-1.5,3-2.1c1.2-0.6,2.7-0.6,4.2-0.6s3,0.3,4.2,0.6
		c1.2,0.6,2.1,1.2,3,2.1c0.6,0.6,1.2,1.5,1.5,2.1c0.3,0.6,0.6,1.5,0.9,2.4c0.3,0.9,0.3,1.8,0.3,3C163.1,307.8,163.1,309,163.1,310.5
		z M158.1,310.5c0-1.2,0-2.4,0-3.3s0-1.5-0.3-2.1c0-0.6-0.3-0.9-0.3-1.2c-0.3-0.3-0.3-0.6-0.6-0.9s-0.9-0.9-1.5-0.9
		c-0.6-0.3-1.2-0.3-2.1-0.3c-0.6,0-1.5,0-2.1,0.3s-1.2,0.6-1.5,0.9c-0.3,0.3-0.6,0.6-0.6,0.9c-0.3,0.3-0.3,0.9-0.3,1.2
		c0,0.6-0.3,1.2-0.3,2.1s0,1.8,0,3.3c0,1.2,0,2.4,0,3.3c0,0.9,0,1.5,0.3,2.1c0,0.6,0.3,0.9,0.3,1.2c0.3,0.3,0.3,0.6,0.6,0.9
		s0.9,0.9,1.5,1.2s1.2,0.3,2.1,0.3c0.6,0,1.5,0,2.1-0.3s0.9-0.6,1.5-1.2c0.3-0.3,0.6-0.6,0.6-0.9c0.3-0.3,0.3-0.9,0.3-1.2
		c0-0.6,0.3-1.2,0.3-2.1C158.1,312.6,158.1,311.7,158.1,310.5z"/>
	<path id="path71_1_" fill="#FFFFFF" d="M172.4,301.6v6.6h10.8v4.8h-10.8V324H167v-26.9h17.7v4.8L172.4,301.6L172.4,301.6z"/>
	<path id="path73_1_" fill="#FFFFFF" d="M215.5,324v-15.9l-5.1,10.2h-3.6l-5.1-10.2V324h-5.4v-26.9h5.1l7.2,14.7l6.9-14.7h5.1V324
		H215.5z"/>
	<path id="path75_1_" fill="#FFFFFF" d="M241.6,324l-1.5-4.8h-9.6L229,324h-5.4l9.9-26.9h4.2l9.9,26.9H241.6z M235.3,304.8l-3.3,9.9
		h6.6L235.3,304.8z"/>
	<path id="path77_1_" fill="#FFFFFF" d="M265.5,324l-10.8-16.5V324h-5.4v-26.9h4.8l10.8,16.5v-16.5h5.4V324H265.5z"/>
	<path id="path79_1_" fill="#FFFFFF" d="M290.7,324l-1.5-4.8h-9.6l-1.5,4.8h-5.7l9.9-26.9h4.2l9.9,26.9H290.7z M284.4,304.8
		l-3.3,9.9h6.6L284.4,304.8z"/>
	<path id="path81_1_" fill="#FFFFFF" d="M317.3,312.9c0,2.1-0.3,3.6-0.6,4.8s-0.9,2.4-2.1,3.3c-1.2,1.2-2.4,2.1-3.6,2.4
		c-1.2,0.3-2.7,0.6-3.9,0.6c-1.5,0-3-0.3-4.2-0.6c-1.2-0.6-2.1-1.2-3.3-2.1c-0.6-0.6-1.2-1.5-1.5-2.1s-0.6-1.5-0.9-2.4
		c-0.3-0.9-0.3-1.8-0.3-3c0-0.9,0-2.1,0-3.6c0-1.2,0-2.4,0-3.6c0-0.9,0-2.1,0.3-3s0.3-1.8,0.9-2.4c0.3-0.6,0.9-1.5,1.5-2.1
		c0.9-0.9,2.1-1.5,3.3-2.1s2.4-0.6,4.2-0.6c1.5,0,3,0.3,4.2,0.6c1.2,0.6,2.1,1.2,3,1.8c0.9,0.9,1.5,1.8,2.1,2.7
		c0.6,0.9,0.9,2.1,0.9,3.3h-5.4c-0.6-2.7-2.1-3.9-4.8-3.9c-0.6,0-1.5,0-1.8,0.3c-0.6,0.3-0.9,0.6-1.5,0.9c-0.3,0.3-0.6,0.6-0.6,0.9
		c-0.3,0.3-0.3,0.9-0.3,1.2c0,0.6-0.3,1.2-0.3,2.1s0,1.8,0,3.3c0,1.2,0,2.4,0,3.3c0,0.9,0,1.5,0.3,2.1c0,0.6,0.3,0.9,0.3,1.5
		c0.3,0.3,0.3,0.6,0.6,0.9s0.9,0.9,1.5,0.9c0.6,0.3,1.2,0.3,1.8,0.3c0.9,0,1.5,0,2.1-0.3c0.6-0.3,1.2-0.6,1.5-1.2s0.6-1.2,0.9-1.8
		s0.3-1.2,0.3-2.1v-0.9h-5.1v-4.5H317L317.3,312.9L317.3,312.9z"/>
	<path id="path83_1_" fill="#FFFFFF" d="M321.2,324v-26.9h17.7v4.8h-12.6v6h10.8v4.8h-10.8v6.6h12.6v4.8L321.2,324L321.2,324z"/>
	<path id="path85_1_" fill="#FFFFFF" d="M361.9,324v-15.9l-5.1,10.2h-3.6l-5.1-10.2V324h-5.4v-26.9h5.1l7.2,14.7l6.9-14.7h5.1V324
		H361.9z"/>
	<path id="path87_1_" fill="#FFFFFF" d="M371.8,324v-26.9h17.7v4.8h-12.3v6H388v4.8h-10.8v6.6h12.6v4.8L371.8,324L371.8,324z"/>
	<path id="path89_1_" fill="#FFFFFF" d="M409.2,324l-10.8-16.5V324H393v-26.9h4.8l10.8,16.5v-16.5h5.4V324H409.2z"/>
	<path id="path91_1_" fill="#FFFFFF" d="M429.6,301.6v22.2h-5.4v-22.2H417v-4.8h19.5v4.8H429.6z"/>
	<path id="path33_1_" fill="#FFFFFF" d="M58.7,245.6L58.7,245.6c-1.8,4.2-3.3,8.7-4.8,12.9h9L58.7,245.6z M63.5,274v-2.1
		c3.6-0.6,3.9-1.2,2.7-3.9c-0.6-1.8-1.5-4.2-2.4-6.6H52.4c-0.6,1.8-1.5,3.9-2.1,6.3c-0.9,2.7-0.6,3.6,3.6,4.2v2.1H40.7v-2.1
		c3.9-0.6,4.8-1.2,6.6-6l12-30.2l3-0.9c3.9,10.2,7.5,20.7,11.4,30.5c2.1,5.1,2.7,6,6.6,6.3v2.1H63.5V274z"/>
	<path id="path35_1_" fill="#FFFFFF" d="M109.9,237.8c-3.9,0.3-4.8,1.2-7.2,6.6c-1.8,4.5-7.2,18-12,29.9h-3
		c-3.9-10.8-9.6-24.8-12-31.1c-1.8-4.5-2.7-5.4-6.3-5.7v-2.1h17.4v2.1c-4.2,0.6-4.2,1.2-3.3,3.9c1.8,4.8,6.3,16.8,8.4,22.2h0.3
		c3.3-8.7,5.7-15.6,7.5-20.7c1.5-4.2,1.5-4.8-3.6-5.4v-2.1h13.8L109.9,237.8L109.9,237.8z"/>
	<path id="path37_1_" fill="#FFFFFF" d="M145.2,264.1c-0.3,2.7-1.5,8.1-2.1,9.9h-29.9v-2.1c5.1-0.3,5.7-0.9,5.7-5.7v-22.5
		c0-5.1-0.6-5.4-4.8-5.7V236h27.8c0,1.2,0.3,5.1,0.6,8.7l-2.1,0.3c-0.6-2.1-1.2-3.9-2.4-5.1c-0.9-1.2-2.7-1.5-6-1.5h-2.7
		c-2.1,0-2.4,0-2.4,2.1v12.6h3.9c5.1,0,5.7-0.3,6.6-4.5h2.1v12h-2.1c-0.9-4.2-1.5-4.5-6.6-4.5h-3.9v9.9c0,2.7,0.3,4.2,1.5,4.8
		s3,0.6,5.4,0.6c3,0,5.1-0.3,6.6-1.8c1.2-1.2,2.1-3.3,3.3-5.7L145.2,264.1L145.2,264.1z"/>
	<path id="path39_1_" fill="#FFFFFF" d="M178.7,264.1c-0.3,2.7-1.5,8.1-2.1,9.9h-29.9v-2.1c5.1-0.3,5.7-0.9,5.7-5.7v-22.5
		c0-5.1-0.6-5.4-4.8-5.7V236h27.8c0,1.2,0.3,5.1,0.6,8.7l-2.4,0c-0.6-2.1-1.2-3.9-2.4-5.1c-0.9-1.2-2.7-1.5-6-1.5h-2.7
		c-2.1,0-2.4,0-2.4,2.1v12.6h3.9c5.1,0,5.7-0.3,6.6-4.5h2.1v12h-2.1c-0.9-4.2-1.5-4.5-6.6-4.5h-3.9v10.2c0,2.7,0.3,4.2,1.5,4.8
		c1.2,0.6,3,0.6,5.4,0.6c3,0,5.1-0.3,6.6-1.8c1.2-1.2,2.1-3.3,3.3-5.7L178.7,264.1L178.7,264.1z"/>
	<path id="path41_1_" fill="#FFFFFF" d="M221.2,237.8c-3.3,0.3-4.5,0.9-4.8,3.6c-0.3,1.8-0.6,4.5-0.6,9.9v23.3h-2.7l-24.5-29.3h-0.3
		v13.2c0,5.1,0.3,7.8,0.6,9.6c0.3,2.7,1.2,3.6,5.7,3.9v2.1h-14.4v-2.1c3.3-0.3,4.8-1.2,4.8-3.6c0.3-1.8,0.6-4.5,0.6-9.9v-12.3
		c0-3.9,0-4.8-1.2-6.3c-1.2-1.5-2.4-1.8-5.1-2.1v-2.1h10.8l22.5,25.7h0.3V251c0-5.1-0.3-8.1-0.6-9.6c-0.3-2.4-1.5-3.6-5.7-3.9v-2.1
		h14.4v2.4H221.2z"/>
	<path id="path43_1_" fill="#FFFFFF" d="M255,237.8c-4.2,0.3-4.5,0.9-4.5,5.7v19.5c0,6.9-0.6,12.3-6,16.8c-2.4,2.1-4.8,3-7.2,3.6
		l-0.9-2.1c3.3-1.5,5.1-3.3,5.4-7.2c0.6-3.3,0.6-7.2,0.6-11.4v-19.2c0-5.1-0.6-5.4-5.1-5.7v-2.1H255L255,237.8L255,237.8z"/>
	<path id="path45_1_" fill="#FFFFFF" d="M258.9,274v-2.1c4.5-0.3,4.8-0.9,4.8-5.7v-22.5c0-5.1-0.6-5.4-4.8-5.7V236h17.7v2.1
		c-4.5,0.3-4.8,0.9-4.8,5.7v22.2c0,5.1,0.6,5.4,4.8,5.7v2.1h-17.7V274z"/>
	<path id="path47_1_" fill="#FFFFFF" d="M322.1,237.8c-3.3,0.3-4.5,0.9-4.8,3.6c-0.3,1.8-0.6,4.5-0.6,9.9v23.3h-2.4l-24.5-29.3h-0.3
		v13.2c0,5.1,0.3,7.8,0.6,9.6c0.3,2.7,1.2,3.6,5.7,3.9v2.1h-14.4v-2.1c3.3-0.3,4.8-1.2,4.8-3.6c0.3-1.8,0.6-4.5,0.6-9.9v-12.3
		c0-3.9,0-4.8-1.2-6.3c-1.2-1.5-2.4-1.8-4.8-2.1v-2.1h10.8l22.5,25.7h0.3V251c0-5.1-0.3-8.1-0.6-9.6c-0.3-2.4-1.5-3.6-5.7-3.9v-2.1
		h14.4L322.1,237.8L322.1,237.8z"/>
	<path id="path49_1_" fill="#FFFFFF" d="M338.9,265.6c0,4.2,0.9,5.7,5.1,5.7c7.8,0,13.2-6.3,13.2-17.1c0-5.7-1.8-10.2-4.5-12.6
		c-2.4-2.4-5.4-3.6-9.6-3.6c-2.1,0-3.3,0.3-3.6,0.9c-0.6,0.6-0.6,1.5-0.6,3.3L338.9,265.6L338.9,265.6z M343.6,235.7
		c7.5,0,13.2,1.5,16.8,5.1c3,2.7,5.4,6.9,5.4,12.6c0,7.2-3,12.3-7.5,15.9c-4.5,3.3-10.5,4.8-18,4.8h-15.3v-2.1
		c4.8-0.3,5.1-0.9,5.1-5.7v-22.5c0-5.1-0.6-5.4-4.8-5.7V236h18.3V235.7z"/>
	<path id="path51_1_" fill="#FFFFFF" d="M379.6,245.6L379.6,245.6c-1.8,4.2-3.3,8.7-4.8,12.9h9.3L379.6,245.6L379.6,245.6z
		 M384.4,274v-2.1c3.6-0.6,3.9-1.2,2.7-3.9c-0.6-1.8-1.5-4.2-2.4-6.6h-11.4c-0.6,1.8-1.5,3.9-2.1,6.3c-0.9,2.7-0.6,3.6,3.6,4.2v2.1
		h-13.2v-2.1c3.9-0.6,4.8-1.2,6.6-6l12-30.2l3-0.9c3.9,10.2,7.5,20.7,11.4,30.5c2.1,5.1,2.7,6,6.6,6.3v2.1h-16.8V274z"/>
	<path id="path53_1_" fill="#FFFFFF" d="M436.1,263.8c-0.6,2.4-1.8,8.4-2.1,9.9h-28.7v-1.8c5.1-0.3,5.7-0.9,5.7-5.7v-22.5
		c0-5.1-0.6-5.4-5.1-5.7V236h18v2.1c-4.5,0.3-5.1,0.9-5.1,5.7v23c0,2.7,0.3,3.9,1.5,4.2s2.7,0.6,4.5,0.6c2.4,0,4.8-0.3,6-2.1
		c1.2-1.2,2.1-3,3.3-6L436.1,263.8L436.1,263.8z"/>
</g>
</svg>
